<?xml version="1.0" encoding="iso-8859-1"?>
<svg xmlns="http://www.w3.org/2000/svg" xml:space="preserve" width="97.75" height="97.75">
  <path d="M28.781 32.006h-4.592V45.85h4.051c2.342 0 4.143-.549 5.404-1.646 1.261-1.098 1.891-2.945 1.891-5.545 0-4.434-2.251-6.653-6.754-6.653z"/>
  <path d="M48.875 0C21.883 0 0 21.883 0 48.875S21.883 97.75 48.875 97.75 97.75 75.867 97.75 48.875 75.867 0 48.875 0zm-1.722 72.867H36.495c-.502-.67-.821-1.443-.956-2.318-.138-.873-.229-1.779-.273-2.721l-.267-9.207c-.09-1.883-.557-3.359-1.401-4.436-.845-1.074-2.27-1.613-4.271-1.613h-5.138v20.295h-9.728V24.883h17.967c4.053 0 7.203 1.018 9.456 3.057 2.251 2.039 3.377 5.143 3.377 9.309 0 3.225-.653 5.857-1.959 7.896-1.306 2.039-3.332 3.35-6.079 3.934v.133c1.666.226 2.994.64 3.985 1.244.99.604 1.757 1.479 2.296 2.621.541 1.143.912 2.588 1.114 4.336.204 1.746.327 3.896.372 6.451.045 2.553.191 4.502.439 5.846.247 1.347.821 2.265 1.723 2.756l.001.401zm36.135 0h-7.16v-4.434h-.135c-1.173 1.881-2.578 3.248-4.222 4.098-1.645.852-3.614 1.277-5.91 1.277-2.971 0-5.393-.55-7.262-1.646-1.869-1.098-3.332-2.721-4.389-4.871-1.061-2.15-1.77-4.807-2.129-7.965-.361-3.16-.54-6.82-.54-10.988 0-4.033.259-7.572.776-10.621.518-3.045 1.406-5.588 2.668-7.627 1.261-2.037 2.928-3.572 4.998-4.604 2.07-1.029 4.66-1.545 7.768-1.545 5.312 0 9.141 1.309 11.482 3.932 2.342 2.621 3.512 6.373 3.512 11.258h-9.32c0-.852-.102-1.76-.305-2.723-.201-.963-.529-1.836-.979-2.621-.451-.783-1.024-1.434-1.723-1.951-.697-.512-1.543-.771-2.531-.771-2.344 0-4.031 1.299-5.066 3.898-1.036 2.599-1.553 6.9-1.553 12.904 0 2.912.09 5.523.269 7.83.18 2.309.509 4.279.979 5.914.474 1.635 1.148 2.889 2.025 3.764.88.873 2.016 1.311 3.412 1.311.584 0 1.227-.158 1.924-.473.698-.311 1.352-.781 1.959-1.41.607-.627 1.114-1.42 1.52-2.385.406-.963.608-2.094.608-3.395v-4.906h-6.417v-7.125h15.738l.003 25.875z"/>
</svg>