<?xml version="1.0" encoding="UTF-8"?>
<svg xmlns="http://www.w3.org/2000/svg" xmlns:xlink="http://www.w3.org/1999/xlink" width="16px" height="16px" viewBox="0 0 16 16" version="1.1">
<g id="surface1">
<path style=" stroke:none;fill-rule:nonzero;fill:rgb(0%,0%,0%);fill-opacity:1;" d="M 13.058594 0 C 12.511719 0 12.050781 0.125 11.675781 0.375 C 11.300781 0.628906 11.027344 1 10.867188 1.496094 C 10.835938 1.59375 10.808594 1.6875 10.792969 1.789062 C 10.769531 1.90625 10.753906 2.023438 10.738281 2.140625 C 10.722656 2.300781 10.710938 2.464844 10.707031 2.625 C 10.699219 2.8125 10.699219 3.039062 10.699219 3.304688 C 10.699219 3.53125 10.699219 3.753906 10.707031 3.980469 C 10.710938 4.144531 10.722656 4.304688 10.742188 4.464844 C 10.753906 4.585938 10.769531 4.703125 10.792969 4.820312 L 10.789062 4.820312 C 10.808594 4.917969 10.832031 5.015625 10.863281 5.113281 C 11.027344 5.605469 11.296875 5.980469 11.671875 6.230469 C 12.050781 6.480469 12.511719 6.605469 13.058594 6.605469 C 13.589844 6.605469 14.082031 6.464844 14.460938 6.207031 C 14.839844 5.945312 15.085938 5.59375 15.242188 5.105469 C 15.292969 4.949219 15.332031 4.734375 15.363281 4.484375 C 15.386719 4.21875 15.394531 3.949219 15.390625 3.679688 L 15.390625 3.132812 C 15.390625 3.070312 15.359375 3.039062 15.296875 3.039062 L 13.253906 3.039062 C 13.191406 3.039062 13.160156 3.070312 13.160156 3.132812 L 13.160156 3.769531 C 13.160156 3.832031 13.191406 3.863281 13.253906 3.863281 L 14.363281 3.863281 C 14.402344 3.863281 14.421875 3.882812 14.421875 3.921875 C 14.421875 4.160156 14.421875 4.335938 14.398438 4.496094 C 14.371094 4.660156 14.328125 4.796875 14.296875 4.902344 C 14.226562 5.160156 14.066406 5.34375 13.875 5.484375 C 13.679688 5.628906 13.382812 5.71875 13.054688 5.71875 C 12.691406 5.71875 12.453125 5.621094 12.25 5.484375 C 12.042969 5.347656 11.902344 5.179688 11.800781 4.875 C 11.75 4.710938 11.714844 4.539062 11.703125 4.367188 C 11.695312 4.21875 11.6875 4.074219 11.679688 3.929688 C 11.675781 3.753906 11.671875 3.546875 11.671875 3.300781 C 11.671875 3.09375 11.675781 2.886719 11.679688 2.675781 C 11.6875 2.53125 11.695312 2.386719 11.703125 2.238281 C 11.71875 2.066406 11.75 1.898438 11.804688 1.734375 C 11.886719 1.460938 12.0625 1.222656 12.296875 1.058594 C 12.527344 0.898438 12.691406 0.824219 13.054688 0.824219 C 13.394531 0.824219 13.597656 0.890625 13.820312 1.027344 C 14.039062 1.164062 14.171875 1.355469 14.328125 1.644531 C 14.359375 1.707031 14.402344 1.722656 14.460938 1.691406 L 15.15625 1.402344 C 15.207031 1.371094 15.214844 1.328125 15.183594 1.269531 C 15.101562 1.09375 14.996094 0.929688 14.875 0.777344 C 14.742188 0.621094 14.589844 0.484375 14.421875 0.371094 C 14.234375 0.25 14.03125 0.160156 13.820312 0.0976562 C 13.570312 0.03125 13.316406 -0.00390625 13.058594 0 Z M 5.476562 3.890625 C 4.351562 3.890625 3.453125 3.949219 2.613281 3.949219 C 1.847656 3.949219 1.085938 3.949219 0.609375 3.929688 L 0.609375 4.484375 L 1.335938 4.617188 C 1.828125 4.710938 2.117188 4.941406 2.117188 6.125 L 2.117188 13.652344 C 2.117188 14.835938 1.828125 15.0625 1.335938 15.160156 L 0.609375 15.292969 L 0.609375 15.847656 C 1.125 15.828125 2.023438 15.789062 2.917969 15.789062 C 3.777344 15.789062 4.886719 15.828125 5.363281 15.847656 L 5.363281 15.292969 L 4.371094 15.160156 C 3.855469 15.082031 3.585938 14.835938 3.585938 13.652344 L 3.585938 10.460938 C 4.046875 10.5 4.449219 10.5 5.058594 10.5 C 6.222656 12.582031 7.332031 14.148438 7.960938 14.871094 C 8.535156 15.5625 9.414062 16 10.519531 16 C 10.84375 16 11.1875 15.941406 11.398438 15.847656 L 11.398438 15.351562 C 10.710938 15.351562 10.023438 14.875 9.527344 14.339844 C 8.6875 13.421875 7.5625 11.949219 6.625 10.289062 C 8.171875 9.925781 9.316406 8.476562 9.316406 7.023438 C 9.316406 4.882812 7.65625 3.890625 5.480469 3.890625 Z M 5.132812 4.75 C 6.738281 4.75 7.695312 5.589844 7.695312 7.117188 C 7.695312 8.628906 6.664062 9.640625 4.960938 9.640625 C 4.3125 9.640625 4.027344 9.621094 3.585938 9.582031 L 3.585938 4.789062 C 4.027344 4.75 4.617188 4.75 5.132812 4.75 Z M 5.132812 4.75 "/>
</g>
</svg>
